HIERARCHY
ROOT Hips
{
 OFFSET 0.000000 0.000000 0.000000
 CHANNELS 6 Xposition Yposition Zposition Yrotation Xrotation Zrotation
 JOINT Chest
 {
  OFFSET 0.000000 9.581000 -0.001100
  CHANNELS 3 Yrotation Xrotation Zrotation
  JOINT Chest2
  {
   OFFSET 0.000000 9.561100 0.002200
   CHANNELS 3 Yrotation Xrotation Zrotation
   JOINT Chest3
   {
    OFFSET 0.000000 9.521100 0.000000
    CHANNELS 3 Yrotation Xrotation Zrotation
    JOINT Chest4
    {
     OFFSET 0.000000 9.511400 0.000000
     CHANNELS 3 Yrotation Xrotation Zrotation
     JOINT Neck
     {
      OFFSET 0.000000 14.375100 0.000000
      CHANNELS 3 Yrotation Xrotation Zrotation
      JOINT Head
      {
       OFFSET 0.000000 8.901200 0.004600
       CHANNELS 3 Yrotation Xrotation Zrotation
       End Site
       {
        OFFSET 0.000000 16.962200 0.002400
       }
      }
     }
     JOINT RightCollar
     {
      OFFSET -2.920100 9.518800 0.000000
      CHANNELS 3 Yrotation Xrotation Zrotation
      JOINT RightShoulder
      {
       OFFSET -13.664500 0.000000 0.000000
       CHANNELS 3 Yrotation Xrotation Zrotation
       JOINT RightElbow
       {
        OFFSET 0.000000 -29.999200 0.000000
        CHANNELS 3 Yrotation Xrotation Zrotation
        JOINT RightWrist
        {
         OFFSET 0.000000 -24.253600 0.000000
         CHANNELS 3 Yrotation Xrotation Zrotation
         End Site
         {
          OFFSET 0.000000 -17.918900 0.000000
         }
        }
       }
      }
     }
     JOINT LeftCollar
     {
      OFFSET 2.920100 9.518800 0.000000
      CHANNELS 3 Yrotation Xrotation Zrotation
      JOINT LeftShoulder
      {
       OFFSET 13.664500 0.000000 0.000000
       CHANNELS 3 Yrotation Xrotation Zrotation
       JOINT LeftElbow
       {
        OFFSET 0.000000 -29.999200 0.000000
        CHANNELS 3 Yrotation Xrotation Zrotation
        JOINT LeftWrist
        {
         OFFSET 0.000000 -24.253600 0.000000
         CHANNELS 3 Yrotation Xrotation Zrotation
         End Site
         {
          OFFSET 0.000000 -17.918900 0.000000
         }
        }
       }
      }
     }
    }
   }
  }
 }
 JOINT RightHip
 {
  OFFSET -7.797300 0.005300 0.000500
  CHANNELS 3 Yrotation Xrotation Zrotation
  JOINT RightKnee
  {
   OFFSET 0.000000 -40.663400 -0.000500
   CHANNELS 3 Yrotation Xrotation Zrotation
   JOINT RightAnkle
   {
    OFFSET 0.000000 -39.523700 -0.000900
    CHANNELS 3 Yrotation Xrotation Zrotation
    JOINT RightToe
    {
     OFFSET 0.000000 -6.418000 14.485300
     CHANNELS 3 Yrotation Xrotation Zrotation
     End Site
     {
      OFFSET 0.000000 -1.465200 6.326400
     }
    }
   }
  }
 }
 JOINT LeftHip
 {
  OFFSET 7.797300 0.005300 0.000500
  CHANNELS 3 Yrotation Xrotation Zrotation
  JOINT LeftKnee
  {
   OFFSET 0.000000 -40.663400 -0.000500
   CHANNELS 3 Yrotation Xrotation Zrotation
   JOINT LeftAnkle
   {
    OFFSET 0.000000 -39.523700 -0.000900
    CHANNELS 3 Yrotation Xrotation Zrotation
    JOINT LeftToe
    {
     OFFSET 0.000000 -6.418000 14.485300
     CHANNELS 3 Yrotation Xrotation Zrotation
     End Site
     {
      OFFSET 0.000000 -1.465200 6.326400
     }
    }
   }
  }
 }
}
MOTION
Frames: 11
Frame Time: 0.008333
0.000000 86.422400 0.000000 0.000000 -5.767877 0.000000 0.000000 11.653817 0.000000 0.000000 -5.885947 0.000000 0.000000 -0.000000 0.000000 0.000000 -0.000000 0.000000 0.000000 12.528835 0.000000 0.000000 0.711642 0.000000 0.000000 -0.000000 0.000000 0.000000 0.000000 -90.000000 0.000000 -2.309062 0.000000 0.000000 2.309062 0.000000 0.000000 -0.000000 0.000000 0.000000 -0.000000 90.000000 0.000000 -2.309062 0.000000 0.000000 2.309062 0.000000 0.000000 8.520406 0.000000 0.000000 1.905762 0.000000 -0.000000 -4.658285 0.000000 0.000000 -0.000000 0.000000 0.000000 8.520406 0.000000 0.000000 1.905762 0.000000 -0.000000 -4.658285 0.000000 0.000000 -0.000000 0.000000
-23.724283 126.440425 52.042240 -178.807432 -28.861055 -3.027606 -0.572880 20.965673 2.111599 -0.117825 2.743625 0.284203 -0.186957 4.484934 0.459504 -0.539204 17.911398 1.794609 2.275822 18.048882 -1.239498 2.686807 -6.674244 -1.815428 -3.388009 -6.877429 -0.351754 8.251705 -16.684507 -9.608653 57.115943 -59.344202 -31.362342 3.574155 15.405165 -30.571424 -9.905385 -4.096163 1.140181 -1.871030 -20.483351 7.770830 -39.134659 -65.860591 26.558011 -22.107826 4.394173 16.248206 -9.270753 -52.622040 3.920795 -14.352411 70.312633 -17.308597 18.209116 12.124785 5.307616 0.004704 -0.000214 0.002084 -4.984076 -52.509825 -5.945716 37.997659 65.994841 27.800267 5.558397 34.997350 8.123275 -0.003960 -0.002619 -0.001755
-23.724469 126.440341 52.043548 -178.805200 -28.862600 -3.028327 -0.576737 20.967939 2.107546 -0.118066 2.746611 0.283774 -0.186020 4.485468 0.460926 -0.541355 17.919106 1.787328 2.279465 18.041614 -1.244456 2.692283 -6.686008 -1.818433 -3.384018 -6.894673 -0.352123 8.249123 -16.681671 -9.603895 57.047877 -59.358240 -31.293624 3.557209 15.352788 -30.612479 -9.903910 -4.109617 1.142987 -1.864926 -20.486025 7.771434 -39.134793 -65.851741 26.553594 -22.071780 4.407636 16.262419 -9.283265 -52.619527 3.927492 -14.344390 70.308811 -17.306267 18.215043 12.125958 5.309101 0.005055 0.000635 0.002240 -4.962408 -52.502657 -5.965215 38.053176 65.978562 27.854500 5.526620 34.973334 8.100545 -0.006838 -0.005359 -0.003030
-23.724465 126.440615 52.044379 -178.797609 -28.868595 -3.031878 -0.574286 20.978165 2.098605 -0.123891 2.747193 0.286557 -0.186534 4.489370 0.460218 -0.539789 17.914402 1.794280 2.280624 18.039791 -1.248097 2.695983 -6.698780 -1.839169 -3.383031 -6.900353 -0.351298 8.250848 -16.685830 -9.618764 56.966588 -59.379230 -31.212768 3.572497 15.331606 -30.625761 -9.912970 -4.126782 1.139148 -1.843201 -20.475558 7.774061 -39.122587 -65.845197 26.527777 -22.058118 4.407512 16.266470 -9.298872 -52.612925 3.936491 -14.351717 70.306376 -17.316920 18.178851 12.128869 5.303164 -0.003321 0.000068 -0.001471 -4.959309 -52.494002 -5.973852 38.117318 65.965050 27.911754 5.487610 34.957828 8.086092 -0.006505 -0.006543 -0.002882
-23.725046 126.440834 52.045435 -178.791877 -28.874105 -3.029755 -0.578732 20.984807 2.093126 -0.118792 2.749809 0.282304 -0.186267 4.492092 0.459228 -0.539124 17.919337 1.789683 2.280137 18.029612 -1.241136 2.695247 -6.703211 -1.844179 -3.387160 -6.919152 -0.349716 8.247913 -16.694915 -9.639916 56.871817 -59.407594 -31.107191 3.560910 15.294728 -30.647304 -9.923443 -4.143422 1.152879 -1.821555 -20.468358 7.771607 -39.090186 -65.830011 26.486595 -22.045862 4.390008 16.269099 -9.303427 -52.609877 3.931626 -14.360162 70.304240 -17.327864 18.188893 12.132551 5.304321 -0.004616 -0.000889 -0.002045 -4.908064 -52.478101 -6.028406 38.143458 65.945247 27.960903 5.449568 34.941548 8.070194 -0.007474 -0.004883 -0.003311
-23.725997 126.441611 52.045598 -178.786918 -28.886368 -3.023898 -0.585129 20.998237 2.084702 -0.119011 2.752782 0.282281 -0.187513 4.494946 0.458433 -0.553429 17.936875 1.787230 2.284130 18.018706 -1.253671 2.704065 -6.717169 -1.848993 -3.370752 -6.952819 -0.360610 8.247263 -16.693526 -9.642156 56.756175 -59.432334 -30.994053 3.584752 15.250618 -30.667765 -9.910846 -4.171910 1.155044 -1.800471 -20.471309 7.776800 -39.052086 -65.818018 26.427198 -22.032819 4.376555 16.278203 -9.297561 -52.600444 3.914691 -14.390449 70.299609 -17.354687 18.227384 12.137731 5.302745 -0.000567 -0.001359 -0.000251 -4.847611 -52.453937 -6.090674 38.130944 65.930251 27.977558 5.421459 34.930158 8.054221 -0.006293 -0.004474 -0.002788
-23.725903 126.441954 52.046741 -178.787257 -28.892541 -3.020679 -0.592262 21.006117 2.083745 -0.120033 2.755667 0.282147 -0.189069 4.499440 0.458246 -0.550077 17.932194 1.782350 2.282177 18.022541 -1.258513 2.708591 -6.724049 -1.858177 -3.362426 -6.965625 -0.377703 8.238910 -16.689512 -9.629775 56.709217 -59.439762 -30.949448 3.579603 15.215122 -30.691330 -9.909802 -4.182143 1.153645 -1.790227 -20.472201 7.780296 -39.004840 -65.804581 26.370424 -22.035075 4.360921 16.287504 -9.294777 -52.596230 3.905439 -14.451544 70.291471 -17.402640 18.275936 12.142247 5.292649 0.006104 -0.002103 0.002704 -4.742622 -52.424919 -6.178747 38.038461 65.917407 27.946369 5.407605 34.917444 8.039797 -0.004099 0.000409 -0.001816
-23.725134 126.442124 52.048340 -178.785169 -28.895606 -3.022293 -0.594793 21.013115 2.089158 -0.120836 2.757840 0.282277 -0.190514 4.502757 0.458173 -0.555644 17.937936 1.780978 2.281361 18.015775 -1.270706 2.714179 -6.729634 -1.865835 -3.349596 -6.992905 -0.401031 8.231811 -16.690647 -9.627264 56.643813 -59.450617 -30.880503 3.566688 15.190091 -30.732841 -9.903562 -4.211581 1.145484 -1.786217 -20.469377 7.788831 -38.914403 -65.784184 26.273482 -22.034615 4.336930 16.305218 -9.301380 -52.593377 3.897294 -14.460507 70.288818 -17.403283 18.322237 12.143196 5.293274 0.007700 -0.000872 0.003411 -4.701329 -52.412826 -6.210044 37.984528 65.916964 27.918125 5.401321 34.913696 8.030782 0.000438 0.001190 0.000194
-23.724687 126.442774 52.049065 -178.785273 -28.904589 -3.021400 -0.599179 21.022013 2.085294 -0.121246 2.760265 0.281890 -0.191137 4.506561 0.457794 -0.572474 17.957600 1.774700 2.298492 17.996636 -1.275115 2.720761 -6.733951 -1.873722 -3.323308 -7.027251 -0.411164 8.235646 -16.695261 -9.635511 56.563841 -59.460373 -30.802410 3.564871 15.159188 -30.762083 -9.886026 -4.248867 1.149260 -1.780152 -20.471001 7.794559 -38.869431 -65.770841 26.222288 -21.994607 4.320919 16.312488 -9.297217 -52.585964 3.886609 -14.479524 70.287791 -17.412753 18.331643 12.146032 5.291402 0.005444 -0.000544 0.002412 -4.660000 -52.396270 -6.238746 37.924987 65.919744 27.880342 5.400923 34.912659 8.025198 0.004053 0.000061 0.001796
-23.724384 126.444002 52.048733 -178.783987 -28.920244 -3.021448 -0.611081 21.037574 2.078964 -0.116245 2.764233 0.283398 -0.193087 4.510482 0.457274 -0.571611 17.956446 1.772935 2.302782 17.992575 -1.277278 2.725033 -6.735706 -1.879933 -3.307042 -7.045477 -0.420313 8.225688 -16.685817 -9.628664 56.519831 -59.461382 -30.761925 3.553719 15.132544 -30.794107 -9.888581 -4.264333 1.143088 -1.773969 -20.472091 7.804937 -38.808672 -65.756948 26.155164 -21.988684 4.307044 16.322726 -9.294118 -52.571074 3.878272 -14.499116 70.285609 -17.425356 18.327598 12.150244 5.287680 0.002057 -0.001435 0.000912 -4.627510 -52.374101 -6.261040 37.798867 65.941577 27.785149 5.411344 34.909509 8.000422 0.008354 -0.001432 0.003702
-23.724138 126.444311 52.049944 -178.785782 -28.924615 -3.020821 -0.614563 21.040723 2.074931 -0.118497 2.766849 0.284799 -0.198387 4.516040 0.454067 -0.563593 17.954971 1.774797 2.303819 17.992511 -1.281106 2.729761 -6.740881 -1.880437 -3.293308 -7.064511 -0.430966 8.230931 -16.681844 -9.635087 56.449961 -59.466040 -30.705376 3.527565 15.088510 -30.832784 -9.890486 -4.281665 1.138108 -1.769169 -20.462745 7.811487 -38.763090 -65.748367 26.112692 -21.990174 4.291035 16.325506 -9.296309 -52.566964 3.879406 -14.513778 70.282271 -17.435152 18.303491 12.155032 5.280878 -0.002929 -0.001227 -0.001298 -4.607110 -52.365685 -6.271920 37.761616 65.945686 27.759992 5.408785 34.909519 7.993539 0.011369 -0.001341 0.005037
